<?xml version="1.0" encoding="UTF-8"?>
<svg xmlns="http://www.w3.org/2000/svg" viewBox="0 0 780 1010" width="100%" height="100%">
  <defs>
    <style>
      .txt-head-title {
        font-family: 'Unbounded', -apple-system, BlinkMacSystemFont, 'Segoe UI', Roboto, sans-serif;
        font-weight: 700;
        font-size: 20px;
        fill: #201e1d;
        letter-spacing: 0.03em;
        text-anchor: middle;
      }
      .txt-head-sub {
        font-family: 'Figtree', system-ui, -apple-system, BlinkMacSystemFont, 'Segoe UI', sans-serif;
        font-weight: 500;
        font-size: 15px;
        fill: #645c50;
        text-anchor: middle;
      }
      .txt-card-badge {
        font-family: 'Unbounded', -apple-system, BlinkMacSystemFont, 'Segoe UI', Roboto, sans-serif;
        font-weight: 700;
        font-size: 12px;
        letter-spacing: 0.05em;
        text-transform: uppercase;
      }
      .txt-card-title {
        font-family: 'Unbounded', -apple-system, BlinkMacSystemFont, 'Segoe UI', Roboto, sans-serif;
        font-weight: 700;
        font-size: 17.5px;
        letter-spacing: 0.01em;
      }
      .txt-card-sub {
        font-family: 'Figtree', system-ui, -apple-system, BlinkMacSystemFont, 'Segoe UI', sans-serif;
        font-weight: 400;
        font-size: 14px;
        fill: #70675a;
      }
      .txt-bullet {
        font-family: 'Figtree', system-ui, -apple-system, BlinkMacSystemFont, 'Segoe UI', sans-serif;
        font-weight: 500;
        font-size: 16px;
        fill: #201e1d;
      }
      .txt-tag {
        font-family: 'Unbounded', -apple-system, BlinkMacSystemFont, 'Segoe UI', Roboto, sans-serif;
        font-weight: 700;
        font-size: 11px;
        letter-spacing: 0.06em;
      }
      .txt-bar-desc {
        font-family: 'Figtree', system-ui, -apple-system, BlinkMacSystemFont, 'Segoe UI', sans-serif;
        font-weight: 600;
        font-size: 14.5px;
      }
      .txt-trans-title {
        font-family: 'Unbounded', -apple-system, BlinkMacSystemFont, 'Segoe UI', Roboto, sans-serif;
        font-weight: 700;
        font-size: 14.5px;
        fill: #201e1d;
        text-anchor: middle;
      }
      .txt-footer {
        font-family: 'Figtree', system-ui, -apple-system, BlinkMacSystemFont, 'Segoe UI', sans-serif;
        font-weight: 600;
        font-size: 13px;
        fill: #82796a;
      }
    </style>
  </defs>

  <!-- Canvas Background (Warm linen/cream matching reference media_1791095930106) -->
  <rect width="780" height="1010" fill="#f6ebdc" />
  
  <!-- Outer Frame with Bauhaus Corner Accent -->
  <rect x="12" y="12" width="756" height="986" rx="20" fill="none" stroke="#201e1d" stroke-width="2.5" />

  <!-- Bauhaus Decorative Geometry Accents (Reference Style) -->
  <!-- Top Left Indicator -->
  <g transform="translate(32, 34)">
    <line x1="0" y1="0" x2="36" y2="0" stroke="#201e1d" stroke-width="2" stroke-linecap="round" />
    <polyline points="0, -4 4, 0 10, -8" fill="none" stroke="#201e1d" stroke-width="2" stroke-linecap="round" stroke-linejoin="round" />
  </g>

  <!-- Top Right Indicator -->
  <g transform="translate(712, 30)">
    <line x1="0" y1="0" x2="0" y2="28" stroke="#201e1d" stroke-width="1.8" />
    <circle cx="0" cy="8" r="3.5" fill="#f6ebdc" stroke="#201e1d" stroke-width="2" />
    <circle cx="0" cy="20" r="3.5" fill="#c67139" />
  </g>

  <!-- ==================== MAIN HEADER ==================== -->
  <g transform="translate(390, 52)">
    <text class="txt-head-title" y="0">ARCHITECTURE À DOUBLE CIRCUIT DES 1 À 1</text>
    <text class="txt-head-sub" y="24">Séparation de l’espace intime de confiance et du registre officiel d’entreprise</text>
  </g>

  <!-- ==================== CARD 1: TRUST SPACE ==================== -->
  <g transform="translate(28, 96)">
    <!-- Card Container -->
    <rect width="724" height="372" rx="16" fill="#fffcf7" stroke="#201e1d" stroke-width="2.5" />
    
    <!-- Top-Right Architectural Arch Motif (Direct reference to uploaded image) -->
    <g transform="translate(590, 16)">
      <!-- Outer arch outline -->
      <path d="M 0,55 A 55,55 0 0,1 110,55 L 110,65 L 0,65 Z" fill="#eeddc4" stroke="#201e1d" stroke-width="2" />
      <!-- Arch Keystone Segments (Terracotta, Camel, Sand, Dark) -->
      <path d="M 12,55 A 43,43 0 0,1 98,55 L 86,55 A 31,31 0 0,0 24,55 Z" fill="#c67139" stroke="#201e1d" stroke-width="1.5" />
      <path d="M 36,55 A 19,19 0 0,1 74,55 L 74,65 L 36,65 Z" fill="#fffcf7" stroke="#201e1d" stroke-width="1.5" />
      <!-- Radial Keystone Divider Lines -->
      <line x1="16" y1="36" x2="28" y2="44" stroke="#201e1d" stroke-width="1.5" />
      <line x1="38" y1="18" x2="46" y2="28" stroke="#201e1d" stroke-width="1.5" />
      <line x1="55" y1="12" x2="55" y2="24" stroke="#201e1d" stroke-width="1.5" />
      <line x1="72" y1="18" x2="64" y2="28" stroke="#201e1d" stroke-width="1.5" />
      <line x1="94" y1="36" x2="82" y2="44" stroke="#201e1d" stroke-width="1.5" />
      <!-- Key Motif atop arch -->
      <g transform="translate(50, 4)">
        <circle cx="16" cy="6" r="6" fill="#201e1d" />
        <circle cx="16" cy="6" r="2.5" fill="#fffcf7" />
        <line x1="10" y1="6" x2="-8" y2="6" stroke="#201e1d" stroke-width="2.5" stroke-linecap="round" />
        <line x1="-3" y1="6" x2="-3" y2="10" stroke="#201e1d" stroke-width="2" stroke-linecap="round" />
        <line x1="-6" y1="6" x2="-6" y2="10" stroke="#201e1d" stroke-width="2" stroke-linecap="round" />
      </g>
    </g>

    <!-- Badge: Zero-Knowledge / E2EE -->
    <g transform="translate(24, 20)">
      <rect width="210" height="28" rx="8" fill="#c67139" stroke="#201e1d" stroke-width="2" />
      <!-- Lock Icon inside badge -->
      <g transform="translate(10, 6)">
        <rect x="0" y="6" width="12" height="9" rx="2" fill="#fffcf7" stroke="#201e1d" stroke-width="1.5" />
        <path d="M 2.5,6 L 2.5,3.5 A 3.5,3.5 0 0,1 9.5,3.5 L 9.5,6" fill="none" stroke="#fffcf7" stroke-width="1.8" />
      </g>
      <text class="txt-card-badge" x="32" y="19" fill="#ffffff">Zero-Knowledge / E2EE</text>
    </g>

    <!-- Card Title & Subtitle -->
    <text class="txt-card-title" x="24" y="76" fill="#201e1d">CIRCUIT 1 : L’ESPACE DE CONFIANCE</text>
    <text class="txt-card-sub" x="24" y="98">Chiffrement de bout en bout • Clés stockées uniquement sur les terminaux</text>
    
    <!-- Architectural Divider Line -->
    <line x1="24" y1="112" x2="700" y2="112" stroke="#201e1d" stroke-width="1.5" stroke-dasharray="6 4" />

    <!-- 4 Bullet Items (Full width, clear spacing) -->
    <!-- Item 1 -->
    <g transform="translate(24, 138)">
      <rect x="0" y="-12" width="16" height="16" rx="4" fill="#eeddc4" stroke="#201e1d" stroke-width="1.8" />
      <circle cx="8" cy="-4" r="3" fill="#c67139" />
      <text class="txt-bullet" x="28" y="0">Baromètre sincère de l’énergie, du moral et de la charge</text>
    </g>

    <!-- Item 2 -->
    <g transform="translate(24, 172)">
      <rect x="0" y="-12" width="16" height="16" rx="4" fill="#eeddc4" stroke="#201e1d" stroke-width="1.8" />
      <circle cx="8" cy="-4" r="3" fill="#c67139" />
      <text class="txt-bullet" x="28" y="0">Blocages intimes, doutes et signaux précurseurs d’épuisement</text>
    </g>

    <!-- Item 3 -->
    <g transform="translate(24, 206)">
      <rect x="0" y="-12" width="16" height="16" rx="4" fill="#eeddc4" stroke="#201e1d" stroke-width="1.8" />
      <circle cx="8" cy="-4" r="3" fill="#c67139" />
      <text class="txt-bullet" x="28" y="0">Rétroaction directe et non filtrée adressée au responsable</text>
    </g>

    <!-- Item 4 -->
    <g transform="translate(24, 240)">
      <rect x="0" y="-12" width="16" height="16" rx="4" fill="#eeddc4" stroke="#201e1d" stroke-width="1.8" />
      <circle cx="8" cy="-4" r="3" fill="#c67139" />
      <text class="txt-bullet" x="28" y="0">Ébauches d’évolution professionnelle et freins opérationnels</text>
    </g>

    <!-- Stacked Security & Access Bars (Guarantees zero text collision in all locales) -->
    <g transform="translate(24, 274)">
      <!-- Row 1: Permitted Access -->
      <g transform="translate(0, 0)">
        <rect width="676" height="38" rx="8" fill="#f0fae1" stroke="#201e1d" stroke-width="1.8" />
        <rect x="8" y="7" width="130" height="24" rx="5" fill="#2e541f" />
        <text class="txt-tag" x="73" y="23" fill="#ffffff" text-anchor="middle">🔒 ACCÈS</text>
        <text class="txt-bar-desc" x="150" y="24" fill="#201e1d">Strictement salarié et manager (clés E2EE sur les terminaux)</text>
      </g>
      <!-- Row 2: Blocked Surveillance -->
      <g transform="translate(0, 48)">
        <rect width="676" height="38" rx="8" fill="#fff0eb" stroke="#201e1d" stroke-width="1.8" />
        <rect x="8" y="7" width="155" height="24" rx="5" fill="#8c3a1a" />
        <text class="txt-tag" x="85" y="23" fill="#ffffff" text-anchor="middle">❌ BLOQUÉ</text>
        <text class="txt-bar-desc" x="175" y="24" fill="#201e1d">RH, administrateurs de l’espace, support technique, IA d’entreprise</text>
      </g>
    </g>
  </g>

  <!-- ==================== TRANSITION: DELIBERATE SYNTHESIS ==================== -->
  <g transform="translate(390, 478)">
    <!-- Vertical connector lines -->
    <line x1="0" y1="-10" x2="0" y2="12" stroke="#201e1d" stroke-width="2.5" />
    <line x1="0" y1="56" x2="0" y2="76" stroke="#201e1d" stroke-width="2.5" />
    
    <!-- Arrowhead pointing down to Circuit 2 -->
    <polygon points="-6,70 0,80 6,70" fill="#201e1d" />

    <!-- Center Transition Badge -->
    <g transform="translate(-270, 12)">
      <rect width="540" height="44" rx="22" fill="#ecdcc4" stroke="#201e1d" stroke-width="2.5" />
      
      <!-- Bauhaus tick indicator -->
      <g transform="translate(18, 22)">
        <polyline points="0,0 4,4 12,-4" fill="none" stroke="#201e1d" stroke-width="2.5" stroke-linecap="round" stroke-linejoin="round" />
        <line x1="16" y1="-4" x2="28" y2="-4" stroke="#201e1d" stroke-width="2.5" stroke-linecap="round" />
      </g>
      
      <!-- Text -->
      <text class="txt-trans-title" x="280" y="27">Synthèse concertée &amp; cristallisation des accords</text>
    </g>

    <!-- Side Graphic Pins matching reference -->
    <g transform="translate(-320, 34)">
      <line x1="-20" y1="0" x2="0" y2="0" stroke="#201e1d" stroke-width="1.8" />
      <circle cx="-10" cy="0" r="3" fill="#c67139" />
    </g>
    <g transform="translate(320, 34)">
      <line x1="0" y1="0" x2="20" y2="0" stroke="#201e1d" stroke-width="1.8" />
      <circle cx="10" cy="0" r="3" fill="#7a8a5e" />
    </g>
  </g>

  <!-- ==================== CARD 2: SYSTEM OF RECORD ==================== -->
  <g transform="translate(28, 568)">
    <!-- Card Container -->
    <rect width="724" height="372" rx="16" fill="#f8faf5" stroke="#201e1d" stroke-width="2.5" />

    <!-- Top-Right Architectural Registry Motif -->
    <g transform="translate(598, 18)">
      <rect x="0" y="0" width="102" height="58" rx="6" fill="#e1eecc" stroke="#201e1d" stroke-width="1.8" />
      <line x1="12" y1="16" x2="90" y2="16" stroke="#201e1d" stroke-width="1.8" />
      <line x1="12" y1="28" x2="68" y2="28" stroke="#7a8a5e" stroke-width="2" />
      <line x1="12" y1="42" x2="72" y2="42" stroke="#7a8a5e" stroke-width="2" />
      <!-- Tiny checkmark block -->
      <rect x="74" y="26" width="18" height="18" rx="3" fill="#7a8a5e" />
      <polyline points="77,35 81,39 88,31" fill="none" stroke="#ffffff" stroke-width="1.8" stroke-linecap="round" stroke-linejoin="round" />
    </g>

    <!-- Badge: System of Record -->
    <g transform="translate(24, 20)">
      <rect width="180" height="28" rx="8" fill="#7a8a5e" stroke="#201e1d" stroke-width="2" />
      <!-- Document icon -->
      <g transform="translate(10, 6)">
        <rect x="0" y="0" width="11" height="15" rx="2" fill="#fffcf7" stroke="#201e1d" stroke-width="1.5" />
        <line x1="3" y1="4" x2="8" y2="4" stroke="#201e1d" stroke-width="1.2" />
        <line x1="3" y1="8" x2="8" y2="8" stroke="#201e1d" stroke-width="1.2" />
      </g>
      <text class="txt-card-badge" x="30" y="19" fill="#ffffff">System of Record</text>
    </g>

    <!-- Card Title & Subtitle -->
    <text class="txt-card-title" x="24" y="76" fill="#201e1d">CIRCUIT 2 : LE SYSTÈME D’ENREGISTREMENT OFFICIEL</text>
    <text class="txt-card-sub" x="24" y="98">Notion d’entreprise, SIRH, BambooHR, Lattice, Wiki interne</text>

    <!-- Architectural Divider Line -->
    <line x1="24" y1="112" x2="700" y2="112" stroke="#201e1d" stroke-width="1.5" stroke-dasharray="6 4" />

    <!-- 4 Bullet Items -->
    <!-- Item 1 -->
    <g transform="translate(24, 138)">
      <rect x="0" y="-12" width="16" height="16" rx="4" fill="#e1eecc" stroke="#201e1d" stroke-width="1.8" />
      <circle cx="8" cy="-4" r="3" fill="#7a8a5e" />
      <text class="txt-bullet" x="28" y="0">Objectifs trimestriels officiels (OKR / KPI)</text>
    </g>

    <!-- Item 2 -->
    <g transform="translate(24, 172)">
      <rect x="0" y="-12" width="16" height="16" rx="4" fill="#e1eecc" stroke="#201e1d" stroke-width="1.8" />
      <circle cx="8" cy="-4" r="3" fill="#7a8a5e" />
      <text class="txt-bullet" x="28" y="0">Jalons validés du Plan de Développement Individuel (PDI)</text>
    </g>

    <!-- Item 3 -->
    <g transform="translate(24, 206)">
      <rect x="0" y="-12" width="16" height="16" rx="4" fill="#e1eecc" stroke="#201e1d" stroke-width="1.8" />
      <circle cx="8" cy="-4" r="3" fill="#7a8a5e" />
      <text class="txt-bullet" x="28" y="0">Évaluations périodiques et synthèses de performance</text>
    </g>

    <!-- Item 4 -->
    <g transform="translate(24, 240)">
      <rect x="0" y="-12" width="16" height="16" rx="4" fill="#e1eecc" stroke="#201e1d" stroke-width="1.8" />
      <circle cx="8" cy="-4" r="3" fill="#7a8a5e" />
      <text class="txt-bullet" x="28" y="0">Métadonnées RH (respect de la cadence, tenue des jalons)</text>
    </g>

    <!-- Stacked Governance & Assurance Bars -->
    <g transform="translate(24, 274)">
      <!-- Row 1: Permitted Governance Access -->
      <g transform="translate(0, 0)">
        <rect width="676" height="38" rx="8" fill="#f0f4f8" stroke="#201e1d" stroke-width="1.8" />
        <rect x="8" y="7" width="125" height="24" rx="5" fill="#1e293b" />
        <text class="txt-tag" x="70" y="23" fill="#ffffff" text-anchor="middle">📋 ACCÈS</text>
        <text class="txt-bar-desc" x="145" y="24" fill="#201e1d">Direction des RH, direction générale et audits de conformité</text>
      </g>
      <!-- Row 2: Safe Process Observability -->
      <g transform="translate(0, 48)">
        <rect width="676" height="38" rx="8" fill="#f0fae1" stroke="#201e1d" stroke-width="1.8" />
        <rect x="8" y="7" width="135" height="24" rx="5" fill="#2e541f" />
        <text class="txt-tag" x="75" y="23" fill="#ffffff" text-anchor="middle">✔ GARANTIE</text>
        <text class="txt-bar-desc" x="155" y="24" fill="#201e1d">Pilotage des processus sans intrusion dans les échanges intimes</text>
      </g>
    </g>
  </g>

  <!-- ==================== BOTTOM DECORATIVE FOOTER ==================== -->
  <g transform="translate(28, 954)">
    <!-- Padlock Icon on left (from reference illustration) -->
    <g transform="translate(10, 4)">
      <rect x="0" y="8" width="16" height="12" rx="3" fill="#d2a06c" stroke="#201e1d" stroke-width="1.8" />
      <path d="M 4,8 L 4,4 A 4,4 0 0,1 12,4 L 12,8" fill="none" stroke="#201e1d" stroke-width="1.8" />
      <circle cx="8" cy="13" r="1.5" fill="#201e1d" />
      <line x1="8" y1="14" x2="8" y2="17" stroke="#201e1d" stroke-width="1.5" />
    </g>

    <!-- Brand text -->
    <text class="txt-footer" x="38" y="20">encrypted1on1.eu • Architecture de Sécurité et de Confiance</text>

    <!-- Bauhaus Graphic Motifs on right -->
    <g transform="translate(680, 16)">
      <polyline points="0,0 4,4 12,-4" fill="none" stroke="#201e1d" stroke-width="2" stroke-linecap="round" stroke-linejoin="round" />
      <line x1="16" y1="-4" x2="30" y2="-4" stroke="#201e1d" stroke-width="2" stroke-linecap="round" />
    </g>
  </g>
</svg>